<?xml version="1.0" encoding="UTF-8"?>
<svg xmlns="http://www.w3.org/2000/svg" version="1.1" width="300" height="300" viewBox="0 0 300 300"><rect x="0" y="0" width="300" height="300" fill="#ffffff"/><g transform="scale(6.667)"><g transform="translate(0,0)"><path fill-rule="evenodd" d="M9 0L9 2L8 2L8 4L9 4L9 3L10 3L10 2L11 2L11 0ZM12 0L12 3L14 3L14 2L15 2L15 3L16 3L16 4L17 4L17 2L15 2L15 1L16 1L16 0L15 0L15 1L14 1L14 2L13 2L13 0ZM18 0L18 5L17 5L17 6L16 6L16 5L15 5L15 4L14 4L14 5L13 5L13 4L11 4L11 5L13 5L13 6L12 6L12 7L13 7L13 6L14 6L14 8L13 8L13 9L16 9L16 10L14 10L14 11L12 11L12 12L13 12L13 14L14 14L14 15L15 15L15 14L17 14L17 16L21 16L21 19L17 19L17 17L16 17L16 16L15 16L15 17L14 17L14 16L13 16L13 15L10 15L10 13L9 13L9 12L11 12L11 11L9 11L9 9L10 9L10 10L12 10L12 8L9 8L9 9L8 9L8 8L6 8L6 9L5 9L5 8L3 8L3 9L4 9L4 10L5 10L5 11L4 11L4 12L3 12L3 11L2 11L2 9L1 9L1 10L0 10L0 13L1 13L1 12L3 12L3 13L2 13L2 15L3 15L3 16L4 16L4 17L3 17L3 18L2 18L2 16L1 16L1 14L0 14L0 16L1 16L1 17L0 17L0 20L1 20L1 21L4 21L4 25L2 25L2 24L1 24L1 25L0 25L0 26L1 26L1 27L2 27L2 30L1 30L1 29L0 29L0 33L1 33L1 32L2 32L2 34L4 34L4 35L1 35L1 36L0 36L0 37L1 37L1 36L3 36L3 37L5 37L5 34L6 34L6 35L7 35L7 36L6 36L6 37L8 37L8 39L9 39L9 40L8 40L8 42L10 42L10 41L11 41L11 43L12 43L12 41L11 41L11 40L12 40L12 39L11 39L11 40L10 40L10 38L9 38L9 36L8 36L8 34L9 34L9 35L10 35L10 36L11 36L11 38L13 38L13 37L14 37L14 36L13 36L13 37L12 37L12 36L11 36L11 35L12 35L12 33L13 33L13 35L15 35L15 38L14 38L14 40L15 40L15 41L14 41L14 42L13 42L13 44L11 44L11 45L13 45L13 44L15 44L15 45L16 45L16 44L17 44L17 45L21 45L21 44L22 44L22 45L25 45L25 44L26 44L26 45L27 45L27 41L25 41L25 40L26 40L26 38L29 38L29 39L27 39L27 40L29 40L29 41L28 41L28 42L29 42L29 44L28 44L28 45L32 45L32 44L31 44L31 43L30 43L30 39L32 39L32 37L33 37L33 39L34 39L34 36L35 36L35 37L36 37L36 40L35 40L35 41L34 41L34 40L31 40L31 42L32 42L32 43L33 43L33 45L35 45L35 44L34 44L34 43L33 43L33 42L32 42L32 41L34 41L34 42L36 42L36 43L37 43L37 42L36 42L36 41L41 41L41 42L40 42L40 45L42 45L42 44L45 44L45 42L44 42L44 43L43 43L43 41L42 41L42 40L44 40L44 41L45 41L45 40L44 40L44 38L43 38L43 37L44 37L44 36L43 36L43 35L42 35L42 36L41 36L41 33L40 33L40 31L41 31L41 32L43 32L43 31L44 31L44 32L45 32L45 27L44 27L44 26L43 26L43 25L45 25L45 24L43 24L43 22L44 22L44 23L45 23L45 22L44 22L44 21L42 21L42 20L43 20L43 19L45 19L45 17L43 17L43 18L42 18L42 17L41 17L41 18L40 18L40 15L42 15L42 16L43 16L43 15L44 15L44 16L45 16L45 15L44 15L44 14L41 14L41 12L43 12L43 13L45 13L45 12L44 12L44 11L45 11L45 10L44 10L44 9L43 9L43 8L41 8L41 9L40 9L40 10L41 10L41 9L42 9L42 11L41 11L41 12L40 12L40 11L39 11L39 13L36 13L36 14L35 14L35 15L33 15L33 16L32 16L32 14L33 14L33 10L32 10L32 14L31 14L31 13L30 13L30 12L31 12L31 11L30 11L30 12L29 12L29 9L30 9L30 10L31 10L31 9L32 9L32 8L31 8L31 6L32 6L32 7L33 7L33 6L34 6L34 7L35 7L35 8L34 8L34 12L35 12L35 11L36 11L36 12L38 12L38 11L36 11L36 10L39 10L39 9L36 9L36 8L37 8L37 6L36 6L36 7L35 7L35 6L34 6L34 5L37 5L37 3L36 3L36 1L37 1L37 0L36 0L36 1L35 1L35 4L34 4L34 5L33 5L33 3L34 3L34 0L32 0L32 1L31 1L31 0L29 0L29 2L30 2L30 3L28 3L28 2L26 2L26 1L25 1L25 0L23 0L23 1L24 1L24 3L27 3L27 4L23 4L23 3L20 3L20 1L21 1L21 2L22 2L22 0ZM30 1L30 2L31 2L31 5L29 5L29 7L28 7L28 6L27 6L27 5L25 5L25 9L26 9L26 10L24 10L24 9L23 9L23 10L22 10L22 9L21 9L21 10L18 10L18 11L17 11L17 10L16 10L16 11L17 11L17 12L16 12L16 13L17 13L17 12L18 12L18 11L23 11L23 10L24 10L24 11L25 11L25 12L24 12L24 14L21 14L21 16L22 16L22 17L23 17L23 18L22 18L22 19L21 19L21 20L23 20L23 19L24 19L24 20L26 20L26 21L25 21L25 23L27 23L27 22L26 22L26 21L27 21L27 20L28 20L28 21L29 21L29 22L28 22L28 24L25 24L25 25L26 25L26 26L24 26L24 27L23 27L23 25L20 25L20 21L19 21L19 20L18 20L18 21L17 21L17 19L16 19L16 17L15 17L15 22L17 22L17 23L18 23L18 21L19 21L19 24L17 24L17 25L15 25L15 26L13 26L13 27L15 27L15 28L14 28L14 29L13 29L13 30L14 30L14 29L16 29L16 30L15 30L15 31L16 31L16 30L19 30L19 31L18 31L18 32L16 32L16 33L20 33L20 36L21 36L21 34L22 34L22 35L23 35L23 36L25 36L25 38L26 38L26 37L27 37L27 36L28 36L28 35L26 35L26 36L25 36L25 31L26 31L26 29L27 29L27 30L28 30L28 31L27 31L27 32L26 32L26 33L27 33L27 32L28 32L28 34L29 34L29 35L30 35L30 37L29 37L29 38L31 38L31 35L32 35L32 34L31 34L31 35L30 35L30 34L29 34L29 29L30 29L30 28L33 28L33 27L36 27L36 28L37 28L37 29L36 29L36 31L37 31L37 33L39 33L39 31L40 31L40 28L39 28L39 27L40 27L40 26L41 26L41 31L43 31L43 30L42 30L42 29L43 29L43 28L44 28L44 27L43 27L43 28L42 28L42 26L41 26L41 25L43 25L43 24L41 24L41 25L40 25L40 26L38 26L38 25L37 25L37 26L38 26L38 28L37 28L37 27L36 27L36 26L35 26L35 24L34 24L34 21L33 21L33 20L34 20L34 19L35 19L35 20L36 20L36 19L39 19L39 20L40 20L40 19L39 19L39 17L38 17L38 16L36 16L36 15L38 15L38 14L36 14L36 15L35 15L35 16L34 16L34 17L35 17L35 18L34 18L34 19L31 19L31 18L33 18L33 17L32 17L32 16L31 16L31 18L26 18L26 19L24 19L24 17L25 17L25 16L26 16L26 17L27 17L27 16L28 16L28 15L31 15L31 14L28 14L28 15L25 15L25 14L27 14L27 12L26 12L26 11L27 11L27 10L28 10L28 9L29 9L29 7L30 7L30 6L31 6L31 5L32 5L32 6L33 6L33 5L32 5L32 2L31 2L31 1ZM19 3L19 4L20 4L20 3ZM9 5L9 6L8 6L8 7L9 7L9 6L10 6L10 7L11 7L11 6L10 6L10 5ZM14 5L14 6L15 6L15 8L16 8L16 9L18 9L18 8L20 8L20 5L19 5L19 7L18 7L18 6L17 6L17 7L18 7L18 8L16 8L16 6L15 6L15 5ZM21 5L21 8L24 8L24 5ZM22 6L22 7L23 7L23 6ZM26 6L26 7L27 7L27 9L28 9L28 7L27 7L27 6ZM6 9L6 10L7 10L7 9ZM35 9L35 10L36 10L36 9ZM43 10L43 11L44 11L44 10ZM6 11L6 12L7 12L7 11ZM8 11L8 12L9 12L9 11ZM4 12L4 13L5 13L5 12ZM19 12L19 14L18 14L18 15L19 15L19 14L20 14L20 12ZM21 12L21 13L23 13L23 12ZM25 12L25 13L26 13L26 12ZM6 13L6 14L5 14L5 15L4 15L4 14L3 14L3 15L4 15L4 16L5 16L5 17L4 17L4 18L7 18L7 17L6 17L6 16L8 16L8 15L6 15L6 14L7 14L7 13ZM11 13L11 14L12 14L12 13ZM39 13L39 15L40 15L40 13ZM5 15L5 16L6 16L6 15ZM9 16L9 17L8 17L8 19L11 19L11 20L10 20L10 21L11 21L11 20L12 20L12 19L11 19L11 17L13 17L13 16L11 16L11 17L10 17L10 16ZM35 16L35 17L36 17L36 18L35 18L35 19L36 19L36 18L37 18L37 17L36 17L36 16ZM9 17L9 18L10 18L10 17ZM1 18L1 19L2 19L2 20L3 20L3 19L2 19L2 18ZM13 18L13 19L14 19L14 18ZM4 19L4 20L7 20L7 19ZM28 19L28 20L30 20L30 22L29 22L29 24L28 24L28 25L27 25L27 27L26 27L26 28L25 28L25 29L24 29L24 30L23 30L23 29L22 29L22 28L23 28L23 27L22 27L22 26L21 26L21 27L19 27L19 26L20 26L20 25L19 25L19 26L18 26L18 25L17 25L17 26L18 26L18 27L17 27L17 28L16 28L16 29L17 29L17 28L18 28L18 27L19 27L19 29L20 29L20 31L21 31L21 32L20 32L20 33L23 33L23 32L24 32L24 31L25 31L25 29L26 29L26 28L27 28L27 29L28 29L28 28L29 28L29 27L30 27L30 24L31 24L31 25L34 25L34 24L33 24L33 22L32 22L32 20L31 20L31 19ZM41 19L41 20L42 20L42 19ZM13 20L13 23L12 23L12 22L9 22L9 24L11 24L11 23L12 23L12 24L13 24L13 25L14 25L14 24L13 24L13 23L14 23L14 20ZM5 21L5 24L8 24L8 21ZM21 21L21 24L24 24L24 21ZM37 21L37 24L40 24L40 21ZM41 21L41 22L42 22L42 21ZM2 22L2 23L3 23L3 22ZM6 22L6 23L7 23L7 22ZM22 22L22 23L23 23L23 22ZM31 22L31 23L32 23L32 22ZM38 22L38 23L39 23L39 22ZM15 23L15 24L16 24L16 23ZM4 25L4 26L3 26L3 30L2 30L2 32L3 32L3 33L4 33L4 32L5 32L5 31L6 31L6 32L7 32L7 33L6 33L6 34L8 34L8 33L9 33L9 34L11 34L11 33L12 33L12 31L11 31L11 30L12 30L12 25L9 25L9 27L10 27L10 26L11 26L11 29L10 29L10 28L8 28L8 26L7 26L7 25L6 25L6 26L5 26L5 25ZM28 25L28 27L27 27L27 28L28 28L28 27L29 27L29 25ZM6 26L6 27L5 27L5 28L4 28L4 29L5 29L5 30L3 30L3 31L5 31L5 30L6 30L6 31L9 31L9 32L10 32L10 31L9 31L9 30L10 30L10 29L9 29L9 30L8 30L8 28L6 28L6 27L7 27L7 26ZM15 26L15 27L16 27L16 26ZM31 26L31 27L32 27L32 26ZM20 28L20 29L21 29L21 31L22 31L22 32L23 32L23 30L22 30L22 29L21 29L21 28ZM34 28L34 29L35 29L35 28ZM6 29L6 30L7 30L7 29ZM31 29L31 30L33 30L33 29ZM37 29L37 31L39 31L39 30L38 30L38 29ZM34 30L34 33L33 33L33 31L32 31L32 32L31 32L31 33L33 33L33 35L34 35L34 33L36 33L36 32L35 32L35 30ZM13 32L13 33L15 33L15 32ZM42 33L42 34L44 34L44 35L45 35L45 34L44 34L44 33ZM17 34L17 36L16 36L16 38L15 38L15 39L16 39L16 40L17 40L17 41L16 41L16 42L17 42L17 43L18 43L18 44L21 44L21 43L22 43L22 44L25 44L25 43L24 43L24 42L25 42L25 41L24 41L24 42L23 42L23 41L22 41L22 42L21 42L21 41L20 41L20 39L19 39L19 40L17 40L17 39L16 39L16 38L19 38L19 35L18 35L18 34ZM23 34L23 35L24 35L24 34ZM35 35L35 36L38 36L38 35ZM17 36L17 37L18 37L18 36ZM42 36L42 37L41 37L41 39L42 39L42 37L43 37L43 36ZM21 37L21 40L24 40L24 37ZM37 37L37 40L40 40L40 37ZM22 38L22 39L23 39L23 38ZM38 38L38 39L39 39L39 38ZM17 41L17 42L19 42L19 41ZM20 42L20 43L21 43L21 42ZM38 42L38 44L36 44L36 45L39 45L39 42ZM41 43L41 44L42 44L42 43ZM0 0L0 7L7 7L7 0ZM1 1L1 6L6 6L6 1ZM2 2L2 5L5 5L5 2ZM38 0L38 7L45 7L45 0ZM39 1L39 6L44 6L44 1ZM40 2L40 5L43 5L43 2ZM0 38L0 45L7 45L7 38ZM1 39L1 44L6 44L6 39ZM2 40L2 43L5 43L5 40Z" fill="#000000"/></g></g></svg>
