<?xml version="1.0" encoding="UTF-8"?>
<svg xmlns="http://www.w3.org/2000/svg" version="1.1" width="300" height="300" viewBox="0 0 300 300"><rect x="0" y="0" width="300" height="300" fill="#ffffff"/><g transform="scale(6.667)"><g transform="translate(0,0)"><path fill-rule="evenodd" d="M9 0L9 2L8 2L8 4L9 4L9 5L11 5L11 4L10 4L10 3L11 3L11 1L12 1L12 2L13 2L13 4L12 4L12 5L13 5L13 6L12 6L12 8L14 8L14 9L11 9L11 12L12 12L12 13L10 13L10 12L9 12L9 13L10 13L10 16L11 16L11 17L12 17L12 16L13 16L13 15L14 15L14 14L18 14L18 13L20 13L20 14L19 14L19 16L20 16L20 14L21 14L21 13L23 13L23 14L22 14L22 15L21 15L21 17L22 17L22 18L20 18L20 20L19 20L19 21L18 21L18 20L17 20L17 19L16 19L16 18L15 18L15 20L13 20L13 19L12 19L12 18L11 18L11 19L12 19L12 20L13 20L13 21L12 21L12 22L11 22L11 20L10 20L10 17L9 17L9 16L6 16L6 15L7 15L7 14L6 14L6 13L7 13L7 12L8 12L8 10L5 10L5 8L3 8L3 9L2 9L2 10L1 10L1 9L0 9L0 11L1 11L1 12L2 12L2 10L3 10L3 11L4 11L4 10L5 10L5 12L4 12L4 14L6 14L6 15L5 15L5 17L4 17L4 15L2 15L2 13L0 13L0 14L1 14L1 15L0 15L0 16L1 16L1 17L2 17L2 16L3 16L3 18L2 18L2 20L0 20L0 23L1 23L1 21L2 21L2 20L3 20L3 18L5 18L5 19L7 19L7 20L4 20L4 21L3 21L3 22L2 22L2 25L3 25L3 26L2 26L2 27L3 27L3 28L1 28L1 26L0 26L0 28L1 28L1 31L0 31L0 32L2 32L2 33L1 33L1 34L3 34L3 32L4 32L4 35L1 35L1 36L0 36L0 37L1 37L1 36L3 36L3 37L5 37L5 34L6 34L6 35L8 35L8 36L6 36L6 37L8 37L8 39L9 39L9 38L11 38L11 37L12 37L12 40L11 40L11 39L10 39L10 40L8 40L8 42L9 42L9 45L10 45L10 44L11 44L11 45L12 45L12 44L13 44L13 43L14 43L14 44L15 44L15 45L16 45L16 44L18 44L18 45L21 45L21 43L20 43L20 44L19 44L19 43L18 43L18 42L16 42L16 44L15 44L15 41L16 41L16 40L17 40L17 39L18 39L18 41L19 41L19 42L21 42L21 41L22 41L22 42L23 42L23 41L25 41L25 42L24 42L24 43L23 43L23 45L25 45L25 44L26 44L26 45L28 45L28 43L30 43L30 44L29 44L29 45L30 45L30 44L31 44L31 45L32 45L32 44L31 44L31 42L32 42L32 43L33 43L33 45L35 45L35 44L37 44L37 45L41 45L41 44L45 44L45 42L44 42L44 43L41 43L41 42L43 42L43 41L45 41L45 39L44 39L44 38L41 38L41 36L43 36L43 37L45 37L45 36L44 36L44 35L45 35L45 34L43 34L43 33L42 33L42 32L45 32L45 27L44 27L44 28L43 28L43 27L41 27L41 26L40 26L40 25L41 25L41 24L43 24L43 25L42 25L42 26L44 26L44 25L45 25L45 24L43 24L43 22L44 22L44 23L45 23L45 22L44 22L44 21L42 21L42 20L43 20L43 19L44 19L44 20L45 20L45 15L43 15L43 14L44 14L44 13L45 13L45 10L44 10L44 9L43 9L43 8L41 8L41 9L38 9L38 10L37 10L37 9L34 9L34 8L33 8L33 9L34 9L34 12L35 12L35 10L36 10L36 12L37 12L37 11L38 11L38 10L39 10L39 12L38 12L38 13L36 13L36 15L34 15L34 17L33 17L33 16L31 16L31 15L29 15L29 14L32 14L32 13L33 13L33 10L32 10L32 9L31 9L31 8L32 8L32 7L33 7L33 6L34 6L34 7L35 7L35 6L34 6L34 5L37 5L37 3L36 3L36 1L37 1L37 0L36 0L36 1L35 1L35 4L34 4L34 5L33 5L33 6L32 6L32 4L33 4L33 3L34 3L34 2L33 2L33 0L30 0L30 1L31 1L31 2L27 2L27 5L28 5L28 8L27 8L27 6L26 6L26 7L25 7L25 5L26 5L26 3L25 3L25 1L26 1L26 0L25 0L25 1L24 1L24 0L19 0L19 1L18 1L18 0L15 0L15 2L14 2L14 1L12 1L12 0L11 0L11 1L10 1L10 0ZM28 0L28 1L29 1L29 0ZM16 1L16 2L17 2L17 1ZM19 1L19 2L18 2L18 3L17 3L17 4L18 4L18 5L19 5L19 9L18 9L18 6L17 6L17 7L16 7L16 6L15 6L15 5L16 5L16 3L15 3L15 4L13 4L13 5L14 5L14 6L13 6L13 7L14 7L14 6L15 6L15 9L16 9L16 10L17 10L17 11L19 11L19 12L20 12L20 13L21 13L21 12L23 12L23 13L24 13L24 12L25 12L25 13L27 13L27 12L30 12L30 11L31 11L31 13L32 13L32 10L30 10L30 11L28 11L28 9L29 9L29 8L30 8L30 6L31 6L31 7L32 7L32 6L31 6L31 5L29 5L29 4L30 4L30 3L28 3L28 5L29 5L29 8L28 8L28 9L27 9L27 8L25 8L25 11L24 11L24 10L23 10L23 9L22 9L22 11L21 11L21 9L20 9L20 5L19 5L19 4L20 4L20 3L19 3L19 2L21 2L21 1ZM9 2L9 3L10 3L10 2ZM21 3L21 4L22 4L22 3ZM21 5L21 8L24 8L24 5ZM8 6L8 7L9 7L9 6ZM10 6L10 8L9 8L9 11L10 11L10 8L11 8L11 6ZM22 6L22 7L23 7L23 6ZM36 6L36 8L37 8L37 6ZM6 8L6 9L8 9L8 8ZM16 8L16 9L17 9L17 10L18 10L18 9L17 9L17 8ZM3 9L3 10L4 10L4 9ZM19 9L19 10L20 10L20 9ZM41 9L41 10L42 10L42 11L44 11L44 10L42 10L42 9ZM13 10L13 11L12 11L12 12L13 12L13 11L14 11L14 12L15 12L15 13L16 13L16 12L15 12L15 10ZM6 11L6 12L7 12L7 11ZM20 11L20 12L21 12L21 11ZM23 11L23 12L24 12L24 11ZM25 11L25 12L26 12L26 11ZM40 11L40 12L41 12L41 15L40 15L40 13L39 13L39 15L40 15L40 17L39 17L39 16L38 16L38 14L37 14L37 16L36 16L36 17L35 17L35 18L34 18L34 21L35 21L35 20L36 20L36 17L37 17L37 20L38 20L38 19L39 19L39 20L40 20L40 18L41 18L41 20L42 20L42 18L41 18L41 17L44 17L44 16L42 16L42 14L43 14L43 12L41 12L41 11ZM12 13L12 14L13 14L13 13ZM8 14L8 15L9 15L9 14ZM23 14L23 15L22 15L22 17L23 17L23 19L24 19L24 20L25 20L25 19L26 19L26 20L27 20L27 19L26 19L26 17L27 17L27 18L28 18L28 17L27 17L27 16L29 16L29 15L28 15L28 14L25 14L25 15L26 15L26 16L24 16L24 14ZM1 15L1 16L2 16L2 15ZM15 15L15 17L16 17L16 16L17 16L17 15ZM30 16L30 17L31 17L31 18L29 18L29 19L31 19L31 20L32 20L32 21L31 21L31 23L29 23L29 22L30 22L30 21L29 21L29 22L28 22L28 25L27 25L27 22L26 22L26 21L25 21L25 25L26 25L26 27L24 27L24 25L23 25L23 27L22 27L22 30L23 30L23 31L21 31L21 32L25 32L25 33L24 33L24 34L23 34L23 33L22 33L22 35L21 35L21 33L20 33L20 34L19 34L19 33L17 33L17 32L16 32L16 31L18 31L18 32L20 32L20 31L19 31L19 30L21 30L21 28L20 28L20 27L21 27L21 26L22 26L22 25L21 25L21 26L20 26L20 27L18 27L18 29L19 29L19 30L16 30L16 31L15 31L15 29L16 29L16 28L17 28L17 27L15 27L15 24L18 24L18 25L17 25L17 26L19 26L19 25L20 25L20 24L19 24L19 23L20 23L20 21L19 21L19 23L17 23L17 22L16 22L16 20L15 20L15 21L13 21L13 22L12 22L12 23L11 23L11 22L10 22L10 21L9 21L9 23L10 23L10 24L9 24L9 25L4 25L4 26L3 26L3 27L5 27L5 26L8 26L8 27L6 27L6 28L9 28L9 30L10 30L10 28L11 28L11 29L13 29L13 28L14 28L14 30L13 30L13 31L11 31L11 32L10 32L10 31L9 31L9 34L10 34L10 36L9 36L9 37L11 37L11 36L12 36L12 37L13 37L13 39L14 39L14 40L15 40L15 38L16 38L16 39L17 39L17 36L18 36L18 37L19 37L19 36L22 36L22 35L23 35L23 36L25 36L25 38L26 38L26 39L27 39L27 40L26 40L26 42L25 42L25 43L24 43L24 44L25 44L25 43L28 43L28 40L29 40L29 42L30 42L30 41L32 41L32 42L33 42L33 43L34 43L34 44L35 44L35 42L38 42L38 43L37 43L37 44L38 44L38 43L39 43L39 44L40 44L40 42L41 42L41 41L43 41L43 40L42 40L42 39L41 39L41 41L35 41L35 40L34 40L34 39L35 39L35 36L36 36L36 35L38 35L38 34L40 34L40 35L39 35L39 36L41 36L41 35L42 35L42 34L40 34L40 33L41 33L41 32L42 32L42 30L41 30L41 32L40 32L40 31L36 31L36 30L34 30L34 31L32 31L32 30L33 30L33 29L32 29L32 30L31 30L31 32L29 32L29 31L30 31L30 29L31 29L31 28L34 28L34 29L35 29L35 27L37 27L37 26L36 26L36 24L35 24L35 25L33 25L33 27L31 27L31 28L29 28L29 29L27 29L27 28L28 28L28 27L29 27L29 25L31 25L31 26L32 26L32 25L31 25L31 23L33 23L33 24L34 24L34 23L33 23L33 22L32 22L32 21L33 21L33 19L32 19L32 18L33 18L33 17L31 17L31 16ZM37 16L37 17L38 17L38 16ZM5 17L5 18L7 18L7 19L8 19L8 20L9 20L9 18L8 18L8 17ZM13 17L13 18L14 18L14 17ZM17 17L17 18L18 18L18 19L19 19L19 17ZM21 19L21 20L22 20L22 19ZM5 21L5 24L8 24L8 21ZM21 21L21 24L24 24L24 21ZM37 21L37 24L40 24L40 21ZM41 21L41 23L42 23L42 21ZM6 22L6 23L7 23L7 22ZM14 22L14 24L11 24L11 26L10 26L10 25L9 25L9 26L10 26L10 27L11 27L11 26L12 26L12 28L13 28L13 27L14 27L14 26L13 26L13 25L14 25L14 24L15 24L15 23L16 23L16 22ZM22 22L22 23L23 23L23 22ZM38 22L38 23L39 23L39 22ZM0 24L0 25L1 25L1 24ZM38 26L38 28L37 28L37 29L38 29L38 30L39 30L39 29L38 29L38 28L41 28L41 27L40 27L40 26ZM23 27L23 29L24 29L24 30L25 30L25 29L26 29L26 28L27 28L27 27L26 27L26 28L25 28L25 29L24 29L24 27ZM3 28L3 29L2 29L2 31L3 31L3 30L5 30L5 28ZM19 28L19 29L20 29L20 28ZM42 28L42 29L43 29L43 31L44 31L44 29L43 29L43 28ZM6 29L6 30L7 30L7 31L4 31L4 32L7 32L7 33L6 33L6 34L7 34L7 33L8 33L8 32L7 32L7 31L8 31L8 30L7 30L7 29ZM27 30L27 31L29 31L29 30ZM25 31L25 32L26 32L26 35L25 35L25 36L26 36L26 38L27 38L27 37L28 37L28 39L29 39L29 40L30 40L30 39L31 39L31 40L32 40L32 41L33 41L33 40L32 40L32 37L33 37L33 39L34 39L34 36L35 36L35 32L36 32L36 31L34 31L34 36L33 36L33 33L32 33L32 32L31 32L31 33L29 33L29 32L28 32L28 33L27 33L27 32L26 32L26 31ZM12 32L12 33L10 33L10 34L12 34L12 36L14 36L14 37L16 37L16 36L17 36L17 35L18 35L18 34L17 34L17 33L16 33L16 32L15 32L15 33L14 33L14 34L13 34L13 32ZM15 33L15 34L14 34L14 36L16 36L16 35L15 35L15 34L16 34L16 33ZM36 33L36 34L37 34L37 33ZM27 34L27 35L26 35L26 36L28 36L28 35L29 35L29 38L30 38L30 37L31 37L31 35L29 35L29 34ZM21 37L21 40L24 40L24 37ZM37 37L37 40L40 40L40 37ZM19 38L19 39L20 39L20 38ZM22 38L22 39L23 39L23 38ZM38 38L38 39L39 39L39 38ZM10 40L10 42L11 42L11 40ZM12 40L12 41L13 41L13 40ZM19 40L19 41L20 41L20 40ZM34 41L34 42L35 42L35 41ZM11 43L11 44L12 44L12 43ZM0 0L0 7L7 7L7 0ZM1 1L1 6L6 6L6 1ZM2 2L2 5L5 5L5 2ZM38 0L38 7L45 7L45 0ZM39 1L39 6L44 6L44 1ZM40 2L40 5L43 5L43 2ZM0 38L0 45L7 45L7 38ZM1 39L1 44L6 44L6 39ZM2 40L2 43L5 43L5 40Z" fill="#000000"/></g></g></svg>
