<?xml version="1.0" encoding="UTF-8"?>
<svg xmlns="http://www.w3.org/2000/svg" version="1.1" width="300" height="300" viewBox="0 0 300 300"><rect x="0" y="0" width="300" height="300" fill="#ffffff"/><g transform="scale(6.667)"><g transform="translate(0,0)"><path fill-rule="evenodd" d="M8 0L8 3L9 3L9 0ZM13 0L13 2L12 2L12 4L13 4L13 5L11 5L11 3L10 3L10 4L9 4L9 5L8 5L8 9L7 9L7 8L6 8L6 9L5 9L5 8L2 8L2 9L0 9L0 10L3 10L3 9L4 9L4 10L6 10L6 11L5 11L5 13L4 13L4 12L3 12L3 11L1 11L1 12L3 12L3 14L2 14L2 15L3 15L3 14L4 14L4 15L5 15L5 16L4 16L4 17L3 17L3 18L2 18L2 16L1 16L1 17L0 17L0 18L1 18L1 19L2 19L2 20L0 20L0 24L2 24L2 25L1 25L1 26L0 26L0 27L1 27L1 26L2 26L2 25L7 25L7 26L3 26L3 27L2 27L2 28L3 28L3 27L4 27L4 28L6 28L6 29L8 29L8 28L9 28L9 23L10 23L10 22L11 22L11 24L10 24L10 26L12 26L12 27L10 27L10 28L12 28L12 29L11 29L11 30L10 30L10 29L9 29L9 31L10 31L10 32L9 32L9 33L8 33L8 30L5 30L5 29L4 29L4 30L5 30L5 31L2 31L2 30L0 30L0 33L1 33L1 34L3 34L3 33L2 33L2 32L4 32L4 35L1 35L1 36L0 36L0 37L1 37L1 36L3 36L3 37L5 37L5 34L6 34L6 35L8 35L8 34L9 34L9 33L11 33L11 34L10 34L10 35L11 35L11 36L10 36L10 37L9 37L9 36L6 36L6 37L8 37L8 38L10 38L10 37L11 37L11 38L12 38L12 39L14 39L14 40L15 40L15 41L13 41L13 40L12 40L12 42L11 42L11 40L8 40L8 43L9 43L9 45L11 45L11 43L12 43L12 42L13 42L13 43L14 43L14 45L17 45L17 44L16 44L16 42L18 42L18 41L19 41L19 39L20 39L20 41L25 41L25 38L26 38L26 36L20 36L20 34L22 34L22 35L23 35L23 34L24 34L24 33L27 33L27 34L26 34L26 35L27 35L27 36L28 36L28 38L29 38L29 41L28 41L28 40L27 40L27 41L28 41L28 42L30 42L30 44L29 44L29 43L28 43L28 44L29 44L29 45L32 45L32 44L34 44L34 43L35 43L35 42L36 42L36 43L37 43L37 42L36 42L36 41L39 41L39 42L38 42L38 43L39 43L39 42L41 42L41 44L43 44L43 45L44 45L44 44L43 44L43 43L44 43L44 42L43 42L43 41L44 41L44 40L43 40L43 39L42 39L42 38L45 38L45 37L42 37L42 38L41 38L41 36L45 36L45 35L43 35L43 34L45 34L45 33L44 33L44 32L45 32L45 31L44 31L44 32L43 32L43 31L41 31L41 30L40 30L40 29L42 29L42 30L45 30L45 29L44 29L44 28L45 28L45 27L44 27L44 26L45 26L45 25L44 25L44 26L43 26L43 25L42 25L42 24L43 24L43 22L45 22L45 20L44 20L44 21L43 21L43 22L41 22L41 21L42 21L42 20L43 20L43 19L44 19L44 18L45 18L45 17L44 17L44 18L43 18L43 17L42 17L42 16L43 16L43 14L45 14L45 13L44 13L44 10L45 10L45 8L42 8L42 10L41 10L41 9L40 9L40 8L37 8L37 6L36 6L36 7L35 7L35 6L34 6L34 7L35 7L35 9L36 9L36 11L35 11L35 10L34 10L34 9L32 9L32 8L33 8L33 6L32 6L32 8L31 8L31 6L30 6L30 5L33 5L33 4L34 4L34 5L37 5L37 3L36 3L36 1L37 1L37 0L36 0L36 1L35 1L35 4L34 4L34 2L30 2L30 1L32 1L32 0L30 0L30 1L29 1L29 0L27 0L27 1L26 1L26 3L28 3L28 4L27 4L27 5L28 5L28 4L30 4L30 5L29 5L29 6L28 6L28 7L29 7L29 10L26 10L26 9L25 9L25 6L26 6L26 8L27 8L27 9L28 9L28 8L27 8L27 6L26 6L26 4L24 4L24 3L25 3L25 0L24 0L24 1L22 1L22 0L21 0L21 1L22 1L22 2L23 2L23 3L22 3L22 4L21 4L21 2L20 2L20 0L19 0L19 2L17 2L17 0L16 0L16 1L15 1L15 0ZM10 1L10 2L11 2L11 1ZM14 1L14 2L13 2L13 4L14 4L14 5L13 5L13 7L14 7L14 5L15 5L15 8L14 8L14 10L13 10L13 9L12 9L12 8L11 8L11 7L12 7L12 6L11 6L11 7L10 7L10 5L9 5L9 7L10 7L10 8L9 8L9 9L10 9L10 12L11 12L11 13L12 13L12 14L13 14L13 11L15 11L15 8L16 8L16 6L17 6L17 10L18 10L18 11L17 11L17 12L18 12L18 13L17 13L17 15L20 15L20 16L17 16L17 17L16 17L16 13L15 13L15 12L14 12L14 15L11 15L11 14L9 14L9 15L8 15L8 16L9 16L9 17L8 17L8 18L7 18L7 17L6 17L6 16L7 16L7 15L6 15L6 14L7 14L7 13L5 13L5 15L6 15L6 16L5 16L5 17L4 17L4 18L3 18L3 19L4 19L4 18L7 18L7 19L6 19L6 20L8 20L8 19L11 19L11 20L12 20L12 21L11 21L11 22L12 22L12 23L13 23L13 24L14 24L14 25L12 25L12 26L13 26L13 27L14 27L14 29L13 29L13 31L12 31L12 32L11 32L11 33L12 33L12 34L11 34L11 35L12 35L12 36L11 36L11 37L12 37L12 38L13 38L13 34L15 34L15 35L14 35L14 36L15 36L15 35L16 35L16 34L18 34L18 33L16 33L16 32L15 32L15 33L14 33L14 30L15 30L15 28L16 28L16 30L17 30L17 31L18 31L18 32L19 32L19 34L20 34L20 32L21 32L21 30L20 30L20 32L19 32L19 31L18 31L18 29L19 29L19 28L17 28L17 27L16 27L16 26L17 26L17 25L20 25L20 26L19 26L19 27L20 27L20 29L23 29L23 30L22 30L22 31L24 31L24 32L23 32L23 33L22 33L22 34L23 34L23 33L24 33L24 32L26 32L26 31L24 31L24 30L26 30L26 29L25 29L25 28L26 28L26 27L25 27L25 26L29 26L29 27L27 27L27 28L29 28L29 29L28 29L28 30L27 30L27 32L28 32L28 33L29 33L29 34L27 34L27 35L29 35L29 36L30 36L30 35L31 35L31 36L32 36L32 37L31 37L31 40L32 40L32 41L33 41L33 40L32 40L32 39L33 39L33 38L35 38L35 39L34 39L34 42L32 42L32 43L31 43L31 44L32 44L32 43L34 43L34 42L35 42L35 41L36 41L36 40L35 40L35 39L36 39L36 38L35 38L35 37L36 37L36 36L35 36L35 35L39 35L39 36L41 36L41 35L42 35L42 33L43 33L43 32L41 32L41 31L40 31L40 30L39 30L39 29L40 29L40 28L42 28L42 29L43 29L43 28L44 28L44 27L43 27L43 26L42 26L42 25L40 25L40 26L38 26L38 27L37 27L37 26L36 26L36 23L34 23L34 22L35 22L35 21L36 21L36 20L35 20L35 19L34 19L34 18L35 18L35 17L37 17L37 18L39 18L39 17L38 17L38 16L40 16L40 17L41 17L41 18L40 18L40 19L37 19L37 20L40 20L40 19L41 19L41 20L42 20L42 19L43 19L43 18L42 18L42 17L41 17L41 16L42 16L42 15L41 15L41 14L39 14L39 12L40 12L40 13L41 13L41 12L42 12L42 13L43 13L43 12L42 12L42 11L41 11L41 10L40 10L40 9L37 9L37 8L36 8L36 9L37 9L37 10L40 10L40 11L37 11L37 12L36 12L36 13L35 13L35 11L34 11L34 10L32 10L32 9L31 9L31 8L30 8L30 9L31 9L31 10L29 10L29 11L27 11L27 12L24 12L24 13L23 13L23 12L22 12L22 10L23 10L23 11L25 11L25 10L23 10L23 9L22 9L22 10L21 10L21 9L20 9L20 6L19 6L19 3L17 3L17 2L16 2L16 5L15 5L15 1ZM28 1L28 3L30 3L30 4L33 4L33 3L30 3L30 2L29 2L29 1ZM17 4L17 5L18 5L18 4ZM21 5L21 8L24 8L24 5ZM18 6L18 8L19 8L19 6ZM22 6L22 7L23 7L23 6ZM29 6L29 7L30 7L30 6ZM6 9L6 10L7 10L7 9ZM18 9L18 10L19 10L19 12L20 12L20 13L19 13L19 14L21 14L21 16L20 16L20 18L19 18L19 19L17 19L17 20L18 20L18 21L17 21L17 22L18 22L18 23L17 23L17 24L16 24L16 21L15 21L15 20L13 20L13 19L12 19L12 20L13 20L13 21L15 21L15 23L14 23L14 24L15 24L15 25L14 25L14 27L15 27L15 25L17 25L17 24L19 24L19 22L18 22L18 21L19 21L19 19L22 19L22 20L20 20L20 25L21 25L21 26L20 26L20 27L22 27L22 25L23 25L23 26L25 26L25 25L29 25L29 26L30 26L30 27L29 27L29 28L30 28L30 29L29 29L29 30L28 30L28 31L29 31L29 32L30 32L30 33L31 33L31 34L32 34L32 32L33 32L33 31L32 31L32 32L30 32L30 31L31 31L31 30L34 30L34 31L35 31L35 32L36 32L36 33L35 33L35 34L34 34L34 33L33 33L33 34L34 34L34 35L35 35L35 34L37 34L37 33L38 33L38 34L39 34L39 35L40 35L40 34L39 34L39 33L41 33L41 32L40 32L40 31L35 31L35 30L34 30L34 29L35 29L35 28L36 28L36 30L37 30L37 27L35 27L35 26L34 26L34 23L31 23L31 22L34 22L34 21L35 21L35 20L34 20L34 21L31 21L31 20L33 20L33 19L32 19L32 18L34 18L34 17L35 17L35 16L33 16L33 15L32 15L32 13L30 13L30 12L33 12L33 14L34 14L34 15L35 15L35 14L34 14L34 12L33 12L33 11L30 11L30 12L29 12L29 14L31 14L31 15L30 15L30 16L29 16L29 15L28 15L28 17L30 17L30 18L28 18L28 19L27 19L27 20L26 20L26 22L28 22L28 24L27 24L27 23L25 23L25 20L24 20L24 19L22 19L22 17L24 17L24 18L27 18L27 16L26 16L26 14L25 14L25 17L24 17L24 14L21 14L21 13L22 13L22 12L21 12L21 11L20 11L20 9ZM43 9L43 10L44 10L44 9ZM8 10L8 11L6 11L6 12L8 12L8 11L9 11L9 10ZM12 10L12 11L11 11L11 12L12 12L12 11L13 11L13 10ZM40 11L40 12L41 12L41 11ZM37 12L37 13L36 13L36 15L37 15L37 16L38 16L38 15L39 15L39 14L38 14L38 12ZM0 13L0 14L1 14L1 13ZM27 13L27 14L28 14L28 13ZM37 14L37 15L38 15L38 14ZM14 15L14 16L13 16L13 18L14 18L14 19L16 19L16 17L15 17L15 15ZM22 15L22 16L21 16L21 17L22 17L22 16L23 16L23 15ZM31 15L31 16L30 16L30 17L31 17L31 18L30 18L30 19L28 19L28 20L29 20L29 21L28 21L28 22L29 22L29 23L30 23L30 19L31 19L31 18L32 18L32 17L33 17L33 16L32 16L32 15ZM40 15L40 16L41 16L41 15ZM44 15L44 16L45 16L45 15ZM31 16L31 17L32 17L32 16ZM9 17L9 18L11 18L11 17ZM14 17L14 18L15 18L15 17ZM2 20L2 22L3 22L3 21L4 21L4 20ZM9 20L9 21L10 21L10 20ZM5 21L5 24L8 24L8 21ZM21 21L21 24L24 24L24 21ZM37 21L37 24L40 24L40 21ZM6 22L6 23L7 23L7 22ZM22 22L22 23L23 23L23 22ZM38 22L38 23L39 23L39 22ZM2 23L2 24L4 24L4 23ZM41 23L41 24L42 24L42 23ZM29 24L29 25L30 25L30 26L31 26L31 27L33 27L33 28L31 28L31 29L33 29L33 28L35 28L35 27L34 27L34 26L33 26L33 24ZM31 25L31 26L32 26L32 25ZM7 26L7 27L6 27L6 28L8 28L8 26ZM41 26L41 27L42 27L42 28L43 28L43 27L42 27L42 26ZM23 27L23 29L24 29L24 27ZM38 27L38 29L39 29L39 27ZM29 30L29 31L30 31L30 30ZM6 31L6 32L5 32L5 33L6 33L6 34L8 34L8 33L6 33L6 32L7 32L7 31ZM12 32L12 33L13 33L13 32ZM38 32L38 33L39 33L39 32ZM17 35L17 37L16 37L16 38L17 38L17 37L18 37L18 38L20 38L20 37L19 37L19 36L18 36L18 35ZM32 35L32 36L33 36L33 35ZM21 37L21 40L24 40L24 37ZM29 37L29 38L30 38L30 37ZM37 37L37 40L40 40L40 37ZM14 38L14 39L15 39L15 38ZM22 38L22 39L23 39L23 38ZM38 38L38 39L39 39L39 38ZM16 39L16 41L17 41L17 39ZM41 39L41 40L42 40L42 41L41 41L41 42L42 42L42 43L43 43L43 42L42 42L42 41L43 41L43 40L42 40L42 39ZM9 41L9 42L10 42L10 41ZM14 42L14 43L15 43L15 42ZM20 42L20 43L19 43L19 44L18 44L18 45L21 45L21 44L22 44L22 45L23 45L23 44L22 44L22 42ZM24 43L24 45L27 45L27 44L25 44L25 43ZM36 44L36 45L39 45L39 44ZM0 0L0 7L7 7L7 0ZM1 1L1 6L6 6L6 1ZM2 2L2 5L5 5L5 2ZM38 0L38 7L45 7L45 0ZM39 1L39 6L44 6L44 1ZM40 2L40 5L43 5L43 2ZM0 38L0 45L7 45L7 38ZM1 39L1 44L6 44L6 39ZM2 40L2 43L5 43L5 40Z" fill="#000000"/></g></g></svg>
